<?xml version="1.0"?>
<svg xmlns="http://www.w3.org/2000/svg" xmlns:xlink="http://www.w3.org/1999/xlink" xmlns:svgjs="http://svgjs.com/svgjs" version="1.1" width="512" height="512" x="0" y="0" viewBox="0 0 512 512" style="enable-background:new 0 0 512 512" xml:space="preserve" class=""><g><g xmlns="http://www.w3.org/2000/svg"><g><path d="m480 412.511-120-79.995v-203.027h-240v-120h392v330h-32z" fill="#ffdf40" data-original="#ffdf40" style=""/></g><path d="m315 129.489h45v203.027l120 79.995v-73.022h32v-330h-197z" fill="#ffbe40" data-original="#ffbe40" style=""/><g><path d="m30 502.511v-73.022h-30v-330h390v330h-250.459z" fill="#1497a8" data-original="#66ccff" style="" class=""/></g><path d="m195 99.489h195v330h-195z" fill="#1497a8" data-original="#59abff" style="" class=""/><g fill="#f3f5f9"><path d="m210 309.489v-60h-60v30h30v30h-30v30h90v-30z" fill="#f3f5f9" data-original="#f3f5f9" style=""/><path d="m180 189.489h30v30h-30z" fill="#f3f5f9" data-original="#f3f5f9" style=""/></g><g fill="#e1e6f0"><path d="m195 189.489h15v30h-15z" fill="#e1e6f0" data-original="#e1e6f0" style=""/><path d="m210 249.489h-15v90h45v-30h-30z" fill="#e1e6f0" data-original="#e1e6f0" style=""/></g></g></g></svg>
